<?xml version="1.0" encoding="utf-8"?>
<!-- Generator: Adobe Illustrator 22.1.0, SVG Export Plug-In . SVG Version: 6.00 Build 0)  -->
<svg version="1.1" id="Capa_1" focusable="false" xmlns="http://www.w3.org/2000/svg" xmlns:xlink="http://www.w3.org/1999/xlink"
	 x="0px" y="0px" viewBox="0 0 44 44" style="enable-background:new 0 0 44 44;" xml:space="preserve">
<style type="text/css">
	.st0{fill:#9DA6B6;}
</style>
<path class="st0" d="M39.1,34.9L32.2,28c-0.3-0.3-0.7-0.5-1.2-0.5H30c1.9-2.4,3-5.5,3-8.8c0-7.9-6.4-14.3-14.3-14.3
	S4.4,10.8,4.4,18.7S10.8,33,18.7,33c3.3,0,6.4-1.1,8.8-3v1.1c0,0.4,0.2,0.9,0.5,1.2l6.9,6.9c0.6,0.6,1.7,0.6,2.3,0l1.9-1.9
	C39.7,36.6,39.7,35.5,39.1,34.9z M18.7,27.5c-4.9,0-8.8-3.9-8.8-8.8c0-4.9,3.9-8.8,8.8-8.8c4.9,0,8.8,3.9,8.8,8.8
	C27.5,23.6,23.6,27.5,18.7,27.5z"/>
</svg>
